<svg width="30" height="30" viewBox="0 0 30 30" fill="none" xmlns="http://www.w3.org/2000/svg">
<path d="M14.8219 16.3562C16.3199 16.3562 17.5342 15.1418 17.5342 13.6438C17.5342 12.1459 16.3199 10.9315 14.8219 10.9315C13.3239 10.9315 12.1096 12.1459 12.1096 13.6438C12.1096 15.1418 13.3239 16.3562 14.8219 16.3562Z" stroke="white" stroke-width="1.80822" stroke-linecap="round" stroke-linejoin="round"/>
<path d="M15.1497 25.3973H14.4942C14.0753 25.3973 13.6695 25.252 13.3459 24.9862C13.0223 24.7203 12.801 24.3503 12.7199 23.9394L11.6349 18.5147C11.5832 18.2526 11.5901 17.9823 11.6553 17.7231C11.7205 17.464 11.8423 17.2226 12.012 17.0162C12.1817 16.8098 12.395 16.6435 12.6366 16.5294C12.8782 16.4153 13.142 16.3561 13.4092 16.3562H16.2346C16.5018 16.3561 16.7657 16.4153 17.0073 16.5294C17.2488 16.6435 17.4622 16.8098 17.6318 17.0162C17.8015 17.2226 17.9233 17.464 17.9885 17.7231C18.0537 17.9823 18.0607 18.2526 18.0089 18.5147L16.924 23.9394C16.8428 24.3503 16.6216 24.7203 16.298 24.9862C15.9743 25.252 15.5685 25.3973 15.1497 25.3973V25.3973Z" stroke="white" stroke-width="1.80822" stroke-linecap="round" stroke-linejoin="round"/>
<path d="M8.075 17.1699C7.65166 16.0741 7.50161 14.8916 7.63782 13.7248C7.77402 12.558 8.19239 11.4419 8.85674 10.473C9.52108 9.5042 10.4114 8.71175 11.4508 8.16421C12.4901 7.61668 13.6472 7.33054 14.8219 7.33054C15.9967 7.33054 17.1537 7.61668 18.1931 8.16421C19.2324 8.71175 20.1227 9.5042 20.7871 10.473C21.4514 11.4419 21.8698 12.558 22.006 13.7248C22.1422 14.8916 21.9922 16.0741 21.5688 17.1699" stroke="white" stroke-width="1.80822" stroke-linecap="round" stroke-linejoin="round"/>
<path d="M8.9904 23.6908C7.01078 22.4289 5.49384 20.559 4.66729 18.3618C3.84075 16.1645 3.7492 13.7585 4.40639 11.5047C5.06358 9.25102 6.43404 7.27127 8.31206 5.86267C10.1901 4.45406 12.4743 3.69261 14.8219 3.69261C17.1695 3.69261 19.4537 4.45406 21.3318 5.86267C23.2098 7.27127 24.5802 9.25102 25.2374 11.5047C25.8946 13.7585 25.8031 16.1645 24.9765 18.3618C24.15 20.559 22.633 22.4289 20.6534 23.6908" stroke="white" stroke-width="1.80822" stroke-linecap="round" stroke-linejoin="round"/>
</svg>
