<svg width="1440" height="1361" viewBox="0 0 1440 1361" fill="none" xmlns="http://www.w3.org/2000/svg">
<rect y="116" width="1440" height="641" fill="url(#paint0_linear_165_120)"/>
<path d="M849 488.5C849 852.732 554.18 1148 190.5 1148C-173.18 1148 -468 852.732 -468 488.5C-468 124.268 -173.18 -171 190.5 -171C554.18 -171 849 124.268 849 488.5ZM-335.262 488.5C-335.262 779.311 -99.8702 1015.06 190.5 1015.06C480.87 1015.06 716.262 779.311 716.262 488.5C716.262 197.689 480.87 -38.0602 190.5 -38.0602C-99.8702 -38.0602 -335.262 197.689 -335.262 488.5Z" fill="white" fill-opacity="0.1"/>
<path d="M624 488.5C624 727.915 430.139 922 191 922C-48.1393 922 -242 727.915 -242 488.5C-242 249.085 -48.1393 55 191 55C430.139 55 624 249.085 624 488.5ZM-154.717 488.5C-154.717 679.655 0.0655975 834.616 191 834.616C381.934 834.616 536.717 679.655 536.717 488.5C536.717 297.345 381.934 142.383 191 142.383C0.0655975 142.383 -154.717 297.345 -154.717 488.5Z" fill="white" fill-opacity="0.05"/>
<path d="M1817 916.5C1817 1161.99 1618.21 1361 1373 1361C1127.79 1361 929 1161.99 929 916.5C929 671.009 1127.79 472 1373 472C1618.21 472 1817 671.009 1817 916.5ZM1053.76 916.5C1053.76 1093.01 1196.69 1236.1 1373 1236.1C1549.31 1236.1 1692.24 1093.01 1692.24 916.5C1692.24 739.993 1549.31 596.905 1373 596.905C1196.69 596.905 1053.76 739.993 1053.76 916.5Z" fill="white" fill-opacity="0.1"/>
<path d="M1604 917C1604 1044.58 1500.58 1148 1373 1148C1245.42 1148 1142 1044.58 1142 917C1142 789.422 1245.42 686 1373 686C1500.58 686 1604 789.422 1604 917ZM1206.91 917C1206.91 1008.73 1281.27 1083.09 1373 1083.09C1464.73 1083.09 1539.09 1008.73 1539.09 917C1539.09 825.272 1464.73 750.911 1373 750.911C1281.27 750.911 1206.91 825.272 1206.91 917Z" fill="white" fill-opacity="0.05"/>
<defs>
<linearGradient id="paint0_linear_165_120" x1="720" y1="116" x2="720" y2="757" gradientUnits="userSpaceOnUse">
<stop stop-color="#221DCE"/>
<stop offset="1" stop-color="#0083C4"/>
</linearGradient>
</defs>
</svg>
